<svg width="255" height="255" viewBox="0 0 255 255" fill="none" xmlns="http://www.w3.org/2000/svg">
<path d="M0 20C0 8.9543 8.95431 0 20 0H235C246.046 0 255 8.95431 255 20V235C255 246.046 246.046 255 235 255H20C8.9543 255 0 246.046 0 235V20Z" fill="#ABABAB"/>
<path d="M36.1628 79C36.1628 76.2386 38.4014 74 41.1628 74H212.837C215.599 74 217.837 76.2386 217.837 79V164.184C217.837 166.945 215.599 169.184 212.837 169.184H41.1628C38.4014 169.184 36.1628 166.945 36.1628 164.184V79Z" fill="#E1E1E1"/>
<path d="M46.9767 90.1429C46.9767 89.5906 47.4245 89.1429 47.9767 89.1429H160.605C161.157 89.1429 161.605 89.5906 161.605 90.1429V120.592C161.605 121.144 161.157 121.592 160.605 121.592H47.9767C47.4245 121.592 46.9767 121.144 46.9767 120.592V90.1429Z" fill="#044E8F"/>
<path d="M207.023 90.1429C207.023 89.5906 207.471 89.1429 208.023 89.1429H217.837V121.592H208.023C207.471 121.592 207.023 121.144 207.023 120.592V90.1429Z" fill="#044E8F"/>
<path d="M36.1628 149.714H217.837V164.184C217.837 166.945 215.599 169.184 212.837 169.184H41.1628C38.4014 169.184 36.1628 166.945 36.1628 164.184V149.714Z" fill="#C2C2C2"/>
<path d="M165.93 165.939C165.93 173.705 159.636 180 151.872 180C144.108 180 137.814 173.705 137.814 165.939C137.814 158.173 144.108 151.878 151.872 151.878C159.636 151.878 165.93 158.173 165.93 165.939Z" fill="#828282"/>
<path d="M79.4186 165.939C79.4186 173.705 73.1246 180 65.3605 180C57.5964 180 51.3023 173.705 51.3023 165.939C51.3023 158.173 57.5964 151.878 65.3605 151.878C73.1246 151.878 79.4186 158.173 79.4186 165.939Z" fill="#828282"/>
<path d="M172.419 90.1429C172.419 89.5906 172.866 89.1429 173.419 89.1429H197.372C197.924 89.1429 198.372 89.5906 198.372 90.1429V159.531C198.372 160.083 197.924 160.531 197.372 160.531H173.419C172.866 160.531 172.419 160.083 172.419 159.531V90.1429Z" fill="#044E8F"/>
<path d="M36.1628 130.245H161.605V134.571H36.1628V130.245Z" fill="#0079C2"/>
<path d="M36.1628 136.735H161.605V138.898H36.1628V136.735Z" fill="#D31147"/>
</svg>
